<svg width="24" height="24" viewBox="0 0 24 24" fill="none" xmlns="http://www.w3.org/2000/svg">
<g opacity="0.5" clip-path="url(#clip0_170_10)">
<path d="M18.172 7L15.636 9.536L17.05 10.95L22 6L17.05 1.05L15.636 2.464L18.172 5H11C8.87827 5 6.84344 5.84286 5.34315 7.34315C3.84285 8.84344 3 10.8783 3 13C3 15.1217 3.84285 17.1566 5.34315 18.6569C6.84344 20.1572 8.87827 21 11 21H20V19H11C9.4087 19 7.88258 18.3679 6.75736 17.2426C5.63214 16.1174 5 14.5913 5 13C5 11.4087 5.63214 9.88258 6.75736 8.75736C7.88258 7.63214 9.4087 7 11 7H18.172Z" fill="black"/>
</g>
<defs>
<clipPath id="clip0_170_10">
<rect width="24" height="24" fill="white" transform="matrix(-1 0 0 1 24 0)"/>
</clipPath>
</defs>
</svg>
